<?xml version="1.0" standalone="no"?>
<!DOCTYPE svg PUBLIC "-//W3C//DTD SVG 20010904//EN"
 "http://www.w3.org/TR/2001/REC-SVG-20010904/DTD/svg10.dtd">
<svg version="1.0" xmlns="http://www.w3.org/2000/svg"
 width="360.000000pt" height="360.000000pt" viewBox="0 0 360.000000 360.000000"
 preserveAspectRatio="xMidYMid meet">
<metadata>
Created by potrace 1.14, written by Peter Selinger 2001-2017
</metadata>
<g transform="translate(0.000000,360.000000) scale(0.100000,-0.100000)"
fill="#000000" stroke="none">
<path d="M1478 3457 c-131 -156 -198 -241 -198 -250 0 -6 -3 -7 -6 -4 -8 7
-44 -36 -44 -52 0 -7 10 -16 23 -21 12 -5 17 -9 10 -9 -7 -1 -10 -7 -7 -14 3
-8 -2 -20 -11 -27 -12 -10 -18 -10 -30 0 -20 16 -28 6 -96 -120 -29 -52 -59
-103 -67 -112 -8 -10 -12 -18 -7 -18 4 0 -4 -15 -19 -34 -14 -19 -26 -41 -26
-49 0 -9 -3 -17 -7 -19 -5 -1 -20 -25 -35 -53 l-26 -50 81 -160 c66 -128 87
-161 106 -165 13 -3 25 -13 27 -23 1 -10 -3 -16 -9 -15 -7 1 -33 -4 -59 -11
-52 -15 -89 -54 -69 -74 6 -6 11 -16 11 -22 0 -5 -5 -3 -10 5 -5 8 -10 10 -10
4 0 -7 -11 -15 -24 -18 -26 -6 -86 -52 -86 -66 0 -5 8 -10 18 -13 13 -3 10 -7
-13 -17 -75 -35 -108 -74 -67 -82 13 -3 9 -8 -15 -21 -18 -10 -33 -15 -33 -12
0 3 -11 -2 -25 -11 -14 -9 -22 -20 -19 -25 3 -5 0 -9 -6 -9 -7 0 -10 -13 -8
-32 3 -30 -1 -35 -38 -53 -23 -11 -49 -28 -58 -37 -17 -18 -23 -63 -6 -53 6 3
10 1 10 -5 0 -6 6 -8 13 -4 9 5 9 4 0 -6 -7 -8 -23 -15 -35 -17 -67 -9 -114
-59 -102 -107 5 -21 1 -25 -32 -36 -41 -14 -67 -35 -77 -62 -8 -21 2 -50 13
-43 5 3 11 1 15 -5 3 -5 3 -10 -2 -11 -70 -7 -119 -36 -129 -75 -7 -27 12 -58
29 -47 6 4 7 1 3 -6 -5 -7 -14 -10 -20 -8 -19 8 -93 -29 -105 -51 -6 -12 -11
-32 -11 -45 0 -26 32 -62 45 -50 4 5 6 2 3 -6 -2 -8 -15 -16 -28 -18 -70 -11
-79 -78 -22 -171 20 -34 47 -73 60 -87 12 -14 22 -30 22 -36 0 -5 4 -7 10 -4
5 3 10 -1 10 -9 0 -9 7 -16 16 -16 8 0 13 -4 10 -8 -3 -5 7 -17 21 -28 14 -10
42 -34 62 -51 20 -18 39 -33 43 -33 4 0 13 -7 21 -15 8 -8 30 -23 48 -34 44
-27 113 -65 119 -66 3 -1 30 -13 60 -27 56 -26 168 -55 205 -53 44 2 86 18 95
34 15 30 19 69 10 102 -11 37 -6 51 15 43 8 -4 13 -9 11 -13 -3 -4 2 -21 10
-38 33 -67 114 -34 114 46 l0 39 49 -3 c61 -5 79 16 76 87 l-3 46 33 -5 c25
-4 38 0 54 16 21 21 25 39 21 94 -1 25 1 27 39 27 50 0 76 32 72 91 -2 35 1
39 21 39 74 1 97 46 74 146 -5 23 -4 32 6 31 32 -1 58 4 56 11 -1 4 3 17 10
30 7 12 12 30 11 40 -4 42 1 53 24 51 54 -5 77 18 77 77 0 14 4 23 9 20 19
-12 58 13 72 45 7 18 21 41 31 51 11 11 23 29 27 41 7 17 18 23 46 25 23 2 34
-1 30 -8 -3 -5 0 -10 7 -10 8 -1 6 -6 -6 -15 -18 -13 -17 -14 8 -21 14 -3 26
-10 26 -15 0 -5 9 -9 20 -9 11 0 20 -4 20 -8 0 -5 15 -15 33 -24 31 -15 36
-15 83 7 27 12 52 21 57 18 4 -2 7 1 7 7 0 6 5 8 10 5 6 -3 10 -2 10 3 0 6 16
13 35 16 19 4 35 11 35 16 0 6 5 10 10 10 6 0 25 6 43 13 18 8 37 15 42 16 6
2 19 8 30 14 11 6 22 12 25 12 3 0 28 12 55 25 28 13 55 24 60 24 6 1 11 15
11 31 2 54 3 56 27 53 19 -3 57 27 57 46 0 3 15 26 33 52 17 25 36 53 42 63 5
9 20 30 32 48 13 17 23 36 23 41 0 6 3 12 8 14 4 2 27 33 51 70 40 63 43 71
36 114 -3 25 -13 64 -22 87 -8 23 -16 47 -17 52 -2 6 -8 23 -14 38 -7 16 -12
33 -12 38 0 5 -4 17 -9 27 -13 25 -28 61 -50 117 -11 28 -27 68 -37 90 -10 22
-18 42 -18 45 -1 3 -9 21 -18 40 -9 19 -25 55 -36 80 -11 25 -36 79 -54 120
-19 41 -43 94 -53 116 l-18 42 -211 71 c-116 40 -215 73 -221 74 -5 1 -12 5
-15 9 -3 4 -17 9 -30 12 -25 5 -228 71 -265 87 -34 14 -259 90 -281 94 -15 4
-30 -7 -56 -38z"/>
<path d="M2600 1472 c-15 -5 -57 -22 -140 -58 -24 -10 -47 -19 -50 -20 -3 0
-18 -7 -35 -14 -16 -7 -32 -14 -35 -15 -3 -1 -18 -8 -35 -15 -16 -7 -32 -14
-35 -15 -3 -1 -23 -9 -45 -19 -51 -22 -89 -39 -95 -41 -3 -1 -16 -6 -30 -12
-48 -21 -85 -36 -90 -38 -3 -1 -22 -9 -43 -18 l-38 -16 6 -188 c3 -103 8 -197
10 -209 3 -11 16 -26 30 -34 18 -9 22 -16 13 -21 -7 -4 -15 -6 -19 -3 -14 8
-21 -36 -15 -94 3 -31 7 -77 8 -101 2 -42 10 -51 53 -61 6 -1 21 -10 35 -19
14 -9 50 -28 80 -41 30 -14 58 -29 61 -33 3 -5 10 -9 15 -9 5 0 50 -19 99 -42
155 -74 349 -167 367 -177 21 -10 43 -3 84 28 17 13 34 23 37 23 3 0 38 22 79
48 40 27 89 57 108 68 19 10 43 27 54 37 11 9 24 17 29 17 4 0 24 12 43 26 19
15 34 23 34 19 0 -3 7 0 15 7 26 24 40 34 55 41 8 4 29 16 45 27 17 11 42 26
56 34 31 18 36 29 33 76 -1 19 -3 63 -3 98 -1 48 -4 62 -16 62 -19 0 -19 19 0
40 13 14 13 26 0 98 -7 44 -17 100 -20 124 -4 24 -11 66 -17 93 -5 28 -10 55
-11 62 0 10 -15 21 -37 28 -3 1 -22 9 -44 18 -21 9 -40 17 -42 17 -5 0 -93 38
-116 51 -10 5 -24 9 -32 9 -7 0 -19 7 -26 15 -7 8 -16 13 -20 10 -5 -3 -11 -1
-14 4 -3 5 -17 12 -31 15 -14 4 -49 17 -78 30 -46 21 -91 40 -192 81 -16 7
-37 10 -45 7z"/>
</g>
</svg>
